<svg xmlns="http://www.w3.org/2000/svg" xmlns:v="https://svgstorm.com"
viewBox = "0 0 128 128"
width="128"
height="128">
<g fill="#000000" fill-opacity="0.00" stroke="None"><path d="
M 0.00 128.00 
L 128.00 128.00
L 128.00 0.00
L 0.00 0.00
L 0.00 128.00
M 91.00 9.00 
C 99.49 11.41 94.18 23.75 88.25 29.25 C 82.31 34.74 70.20 31.60 72.98 22.98 C 75.75 14.35 82.76 6.66 91.00 9.00
M 66.00 12.00 
C 73.75 14.64 66.81 33.11 59.00 29.00 C 51.19 24.89 57.96 9.26 66.00 12.00
M 49.00 16.00 
C 55.71 18.51 51.73 35.10 44.78 31.22 C 37.82 27.34 40.43 12.79 49.00 16.00
M 37.00 25.00 
C 42.96 27.22 40.41 41.82 33.78 38.22 C 27.15 34.62 29.96 22.38 37.00 25.00
M 56.00 72.00 
C 75.69 48.79 112.67 74.04 99.69 100.69 C 86.72 127.35 44.43 112.26 51.00 84.00
C 40.97 76.42 35.89 70.97 34.94 57.92 C 33.98 44.86 44.09 38.47 56.02 35.02 C 67.96 31.57 86.56 36.45 79.08 50.08 C 71.59 63.70 58.83 56.94 56.00 72.00 Z"/>
</g>
<g fill="#282829" fill-opacity="0.87" stroke="None"><path d="
M 91.00 9.00 
C 82.76 6.66 75.75 14.35 72.98 22.98 C 70.20 31.60 82.31 34.74 88.25 29.25 C 94.18 23.75 99.49 11.41 91.00 9.00 Z"/>
</g>
<g fill="#272828" fill-opacity="0.83" stroke="None"><path d="
M 66.00 12.00 
C 57.96 9.26 51.19 24.89 59.00 29.00 C 66.81 33.11 73.75 14.64 66.00 12.00 Z"/>
</g>
<g fill="#272729" fill-opacity="0.82" stroke="None"><path d="
M 49.00 16.00 
C 40.43 12.79 37.82 27.34 44.78 31.22 C 51.73 35.10 55.71 18.51 49.00 16.00 Z"/>
</g>
<g fill="#272728" fill-opacity="0.78" stroke="None"><path d="
M 37.00 25.00 
C 29.96 22.38 27.15 34.62 33.78 38.22 C 40.41 41.82 42.96 27.22 37.00 25.00 Z"/>
</g>
<g fill="#282929" fill-opacity="0.91" stroke="None"><path d="
M 56.00 72.00 
C 58.83 56.94 71.59 63.70 79.08 50.08 C 86.56 36.45 67.96 31.57 56.02 35.02 C 44.09 38.47 33.98 44.86 34.94 57.92 C 35.89 70.97 40.97 76.42 51.00 84.00
C 44.43 112.26 86.72 127.35 99.69 100.69 C 112.67 74.04 75.69 48.79 56.00 72.00 Z"/>
</g>
<g fill="#77402C" fill-opacity="1.00" stroke="None"><path d="
M 73.00 69.00 
C 73.99 68.95 75.01 69.00 76.00 69.00
C 77.00 69.00 78.00 69.00 79.00 69.00
C 76.67 68.56 75.40 68.51 73.00 69.00 Z"/>
</g>
<g fill="#EA3839" fill-opacity="1.00" stroke="None"><path d="
M 56.00 89.00 
C 58.72 87.92 63.48 90.43 66.00 89.00
C 65.98 84.14 71.36 79.14 76.00 79.00
C 76.00 75.67 76.00 72.33 76.00 69.00
C 75.01 69.00 73.99 68.95 73.00 69.00
C 63.14 69.51 55.85 79.66 56.00 89.00 Z"/>
</g>
<g fill="#F58F23" fill-opacity="1.00" stroke="None"><path d="
M 76.00 79.00 
C 79.41 78.89 83.50 80.69 85.00 84.00
C 88.08 82.41 91.23 81.11 94.00 79.00
C 90.79 73.48 85.75 69.03 79.00 69.00
C 78.00 69.00 77.00 69.00 76.00 69.00
C 76.00 72.33 76.00 75.67 76.00 79.00 Z"/>
</g>
<g fill="#2B2A2A" fill-opacity="1.00" stroke="None"><path d="
M 66.00 89.00 
C 66.01 90.87 68.95 96.80 71.00 98.00
C 71.40 97.80 72.50 98.00 73.00 98.00
C 74.89 98.00 77.15 98.35 79.00 98.00
C 80.61 97.43 84.11 95.65 85.00 94.00
C 86.50 91.21 86.28 86.84 85.00 84.00
C 83.50 80.69 79.41 78.89 76.00 79.00
C 71.36 79.14 65.98 84.14 66.00 89.00 Z"/>
</g>
<g fill="#F2C917" fill-opacity="1.00" stroke="None"><path d="
M 85.00 84.00 
C 86.28 86.84 86.50 91.21 85.00 94.00
C 88.21 93.67 91.33 99.31 95.00 98.00
C 97.98 91.47 97.40 84.85 94.00 79.00
C 91.23 81.11 88.08 82.41 85.00 84.00 Z"/>
</g>
<g fill="#1C6FBA" fill-opacity="1.00" stroke="None"><path d="
M 66.00 106.00 
C 67.72 103.79 68.37 99.28 71.00 98.00
C 68.95 96.80 66.01 90.87 66.00 89.00
C 63.48 90.43 58.72 87.92 56.00 89.00
C 56.13 96.94 59.58 102.07 66.00 106.00 Z"/>
</g>
<g fill="#62BB40" fill-opacity="1.00" stroke="None"><path d="
M 79.00 98.00 
C 76.55 98.86 75.45 99.16 73.00 98.00
C 72.50 98.00 71.40 97.80 71.00 98.00
C 68.37 99.28 67.72 103.79 66.00 106.00
C 75.63 111.90 89.86 109.25 95.00 98.00
C 91.33 99.31 88.21 93.67 85.00 94.00
C 84.11 95.65 80.61 97.43 79.00 98.00 Z"/>
</g>
<g fill="#37562F" fill-opacity="1.00" stroke="None"><path d="
M 79.00 98.00 
C 77.15 98.35 74.89 98.00 73.00 98.00
C 75.45 99.16 76.55 98.86 79.00 98.00 Z"/>
</g>
</svg>