<?xml version="1.0" encoding="UTF-8" standalone="no"?>
<!-- Created with Inkscape (http://www.inkscape.org/) -->

<svg
   width="58.209385mm"
   height="86.681847mm"
   viewBox="0 0 58.209385 86.681847"
   version="1.1"
   id="svg1"
   xml:space="preserve"
   xmlns="http://www.w3.org/2000/svg"
   xmlns:svg="http://www.w3.org/2000/svg"><defs
     id="defs1" /><g
     id="layer1"
     transform="translate(-84.118031,-107.98076)"><circle
       style="fill:#000000;stroke-width:0.264583"
       id="path1-7"
       cx="121.83511"
       cy="174.1703"
       r="20.492311" /><path
       style="fill:#000000;stroke-width:0.264583"
       d="m 106.50893,162.63259 c 0,0 -7.7492,-3.61628 1.20542,-9.47123 8.95462,-5.85495 18.25365,-10.67667 17.22043,-18.59806 -1.03323,-7.9214 -33.57984,-9.47124 -37.88494,11.53768 -4.30511,21.00893 23.24758,27.72489 23.24758,27.72489 z"
       id="path2-9" /><ellipse
       style="fill:#000000;stroke-width:0.252587"
       id="path3-0"
       cx="137.54005"
       cy="84.124916"
       rx="4.6178055"
       ry="6.8742332"
       transform="rotate(15.616313)" /><ellipse
       style="fill:#000000;stroke-width:0.264583"
       id="path4-2"
       cx="100.69996"
       cy="117.12248"
       rx="3.7782044"
       ry="6.5069075"
       transform="rotate(2.0298316)" /><ellipse
       style="fill:#000000;stroke-width:0.264583"
       id="path5-3"
       cx="63.588993"
       cy="140.81824"
       rx="3.4633539"
       ry="5.6673069"
       transform="rotate(-10.268306)" /><ellipse
       style="fill:#000000;stroke-width:0.264583"
       id="path6-9"
       cx="171.45003"
       cy="33.211639"
       rx="7.6613588"
       ry="11.859364"
       transform="rotate(31.91571)" /><g
       id="color-wheel-(1)"
       transform="matrix(0.62020015,0,0,0.62020015,106.02,158.3552)"
       fill-rule="nonzero"
       style="fill:none;stroke:none;stroke-width:1"><path
         d="m 3.4085083,38.254669 c 1.1038742,1.90464 2.4622192,3.678154 4.0602493,5.276573 C 12.285416,48.347511 18.68882,51 25.5,51 c 6.811569,0 13.214973,-2.652489 18.031242,-7.468758 1.598419,-1.598419 2.956375,-3.371933 4.06025,-5.276573 C 49.814415,34.419319 51,30.051292 51,25.5 51,20.948708 49.814415,16.580681 47.591492,12.745331 46.487617,10.840691 45.129272,9.0667878 43.531242,7.4687576 38.714973,2.6524887 32.311569,0 25.5,0 18.68882,0 12.285027,2.6524887 7.4687576,7.4687576 5.8703385,9.0667878 4.5119934,10.840691 3.4085083,12.745331 1.185585,16.580681 0,20.949097 0,25.5 0,30.050903 1.185585,34.419319 3.4085083,38.254669 Z M 18.992317,25.5 c 0,-1.184418 0.319451,-2.294518 0.874695,-3.25248 1.126831,-1.943939 3.228744,-3.255592 5.632988,-3.255592 2.404243,0 4.506157,1.311653 5.633377,3.255592 0.554855,0.957573 0.874695,2.068062 0.874695,3.25248 0,1.184418 -0.31984,2.294518 -0.874695,3.252091 -1.126831,1.944328 -3.229134,3.255592 -5.633377,3.255592 -2.404244,0 -4.506157,-1.311264 -5.633377,-3.255592 C 19.311768,27.794518 18.992317,26.684418 18.992317,25.5 Z"
         id="Shape"
         fill="#ff8398" /><path
         d="M 25.5,41.503647 V 51 c 6.811569,0 13.214973,-2.652489 18.031242,-7.468758 1.598419,-1.598419 2.956375,-3.371933 4.06025,-5.276573 L 39.361656,33.502991 C 36.594383,38.285797 31.423256,41.503647 25.5,41.503647 Z"
         id="path1-3"
         fill="#54e360" /><path
         d="m 41.504036,25.5 c 0,2.91552 -0.780144,5.648941 -2.14238,8.002991 l 8.229836,4.751678 C 49.814415,34.419319 51,30.051292 51,25.5 51,20.948708 49.814415,16.580681 47.591492,12.745331 l -8.229836,4.751289 c 1.362236,2.354439 2.14238,5.08786 2.14238,8.00338 z"
         id="path2"
         fill="#008adf" /><path
         d="m 11.638344,33.502991 -8.2298357,4.751678 c 1.1038742,1.90464 2.4622192,3.678154 4.0602493,5.276573 C 12.285416,48.347511 18.68882,51 25.5,51 v -9.496353 c -5.923256,0 -11.094383,-3.21785 -13.861656,-8.000656 z"
         id="path3"
         fill="#ffd400" /><path
         d="m 39.361656,17.49662 8.229836,-4.751289 C 46.487617,10.840691 45.129272,9.0667878 43.531242,7.4687576 38.714973,2.6524887 32.311569,0 25.5,0 v 9.495964 c 5.923256,0 11.094383,3.218239 13.861656,8.000656 z"
         id="path4"
         fill="#0065a3" /><path
         d="M 3.4085083,38.254669 11.638344,33.502991 C 10.276108,31.148941 9.4963532,28.41552 9.4963532,25.5 c 0,-2.91552 0.7797548,-5.648941 2.1419908,-8.002991 L 3.4085083,12.745331 C 1.185585,16.580681 0,20.949097 0,25.5 c 0,4.550903 1.185585,8.919319 3.4085083,12.754669 z"
         id="path5"
         fill="#ff9100" /><path
         d="M 25.5,9.495964 V 0 C 18.68882,0 12.285027,2.6524887 7.4687576,7.4687576 5.8703385,9.0667878 4.5119934,10.840691 3.4085083,12.745331 l 8.2298357,4.751678 C 14.405617,12.714203 19.576744,9.495964 25.5,9.495964 Z"
         id="path6"
         fill="#ff4949" /><path
         d="m 32.008072,25.5 c 0,1.184418 -0.31984,2.294518 -0.874695,3.252091 l 8.228279,4.7509 c 1.362236,-2.35405 2.14238,-5.087471 2.14238,-8.002991 0,-2.915909 -0.780144,-5.648941 -2.14238,-8.00338 l -8.228279,4.7509 c 0.554855,0.957573 0.874695,2.068062 0.874695,3.25248 z"
         id="path7"
         fill="#0065a3" /><path
         d="m 31.133377,22.24752 8.228279,-4.750511 C 36.594383,12.714203 31.423256,9.495964 25.5,9.495964 v 9.495964 c 2.404243,0 4.506157,1.311653 5.633377,3.255592 z"
         id="path8"
         fill="#005183" /><path
         d="m 25.5,32.007683 v 9.495964 c 5.923256,0 11.094383,-3.21785 13.861656,-8.000656 L 31.133377,28.75248 C 30.006546,30.696419 27.904243,32.007683 25.5,32.007683 Z"
         id="path9"
         fill="#00ab5e" /><path
         d="m 25.5,41.503647 v -9.495964 c -2.404244,0 -4.506157,-1.311264 -5.633377,-3.255592 l -8.228279,4.7509 c 2.767273,4.782806 7.9384,8.000656 13.861656,8.000656 z"
         id="path10"
         fill="#ff9f04" /><path
         d="m 18.992317,25.5 c 0,-1.184418 0.319451,-2.294518 0.874695,-3.25248 L 11.638344,17.497009 C 10.276108,19.851059 9.4963532,22.58448 9.4963532,25.5 c 0,2.91552 0.7797548,5.648941 2.1419908,8.002991 l 8.228279,-4.7509 C 19.311768,27.794518 18.992317,26.684418 18.992317,25.5 Z"
         id="path11"
         fill="#ff4b00" /><path
         d="M 25.5,18.991928 V 9.495964 c -5.923256,0 -11.094383,3.218239 -13.861656,8.001045 l 8.228668,4.750511 C 20.993843,20.303581 23.095756,18.991928 25.5,18.991928 Z"
         id="path12"
         fill="#e80048" /></g></g></svg>
